<svg aria-hidden="true" style="position: absolute; width: 0; height: 0; overflow: hidden;" version="1.1" xmlns="http://www.w3.org/2000/svg" xmlns:xlink="http://www.w3.org/1999/xlink">
<defs>
<symbol id="icon-icon-send" viewBox="0 0 32 32">
<path fill="#fff" style="fill: var(--color2, #fff)" d="M32.003 0l-32.003 18.002 10.228 3.787 15.775-14.788-11.998 16.188 0.009 0.003-0.012-0.003v8.814l5.735-6.691 7.267 2.691 4.999-28.003z"></path>
</symbol>
<symbol id="icon-check" viewBox="0 0 42 32">
<path fill="#fff" style="fill: var(--color1, #fff); stroke: var(--color1, #fff)" stroke="#fff" stroke-linejoin="miter" stroke-linecap="butt" stroke-miterlimit="4" stroke-width="0.64" d="M6.264 15.223l-0.221-0.211-0.221 0.208-3.086 2.926 0.243 0.234 11.412 10.884 0.221-0.211 24.264-23.147-0.243-0.23-3.044-2.903-0.221 0.211-20.977 19.994-8.127-7.753z"></path>
</symbol>
<symbol id="icon-mail" viewBox="0 0 43 32">
<path d="M37.353 0h-32.017c-2.201 0-3.983 1.801-3.983 4.002l-0.019 24.013c0 2.201 1.801 4.002 4.002 4.002h32.017c2.201 0 4.002-1.801 4.002-4.002v-24.013c0-2.201-1.801-4.002-4.002-4.002zM36.553 8.506l-14.146 8.842c-0.302 0.188-0.668 0.3-1.061 0.3s-0.759-0.112-1.069-0.305l0.009 0.005-14.149-8.845c-0.504-0.301-0.836-0.844-0.836-1.464 0-0.939 0.761-1.7 1.7-1.7 0.349 0 0.673 0.105 0.943 0.286l13.401 8.382 13.407-8.386c0.264-0.177 0.588-0.282 0.937-0.282 0.939 0 1.7 0.761 1.7 1.7 0 0.62-0.332 1.163-0.828 1.459l-0.008 0.004z"></path>
</symbol>
<symbol id="icon-name" viewBox="0 0 32 32">
<path d="M16.009 16.009c4.421 0 8.004-3.584 8.004-8.004s-3.584-8.004-8.004-8.004v0c-4.421 0-8.004 3.584-8.004 8.004s3.584 8.004 8.004 8.004v0zM16.009 20.011c-5.342 0-16.009 2.681-16.009 8.004v2.001c0 1.099 0.902 2.001 2.001 2.001h28.015c1.099 0 2.001-0.902 2.001-2.001v-2.001c0-5.323-10.667-8.004-16.009-8.004z"></path>
</symbol>
<symbol id="icon-tel" viewBox="0 0 32 32">
<path d="M27.424 20.856l-4.202-0.48c-0.116-0.014-0.25-0.023-0.386-0.023-0.909 0-1.732 0.369-2.328 0.965l-3.045 3.045c-4.718-2.435-8.468-6.186-10.837-10.766l-0.065-0.139 3.063-3.056c0.596-0.596 0.964-1.419 0.964-2.328 0-0.136-0.008-0.27-0.024-0.401l0.002 0.016-0.48-4.17c-0.199-1.655-1.595-2.926-3.288-2.926-0.001 0-0.003 0-0.004 0h-2.862c-1.87-0.005-3.425 1.55-3.31 3.418 0.878 14.128 12.178 25.412 26.29 26.29 1.868 0.114 3.425-1.44 3.425-3.31v-2.862c0-0.005 0-0.010 0-0.016 0-1.682-1.266-3.068-2.897-3.256l-0.015-0.001z"></path>
</symbol>
</defs>
</svg>
